<?xml version="1.0" encoding="UTF-8"?>
<!DOCTYPE score-partwise PUBLIC "-//Recordare//DTD MusicXML 3.0 Partwise//EN" "http://www.musicxml.org/dtds/partwise.dtd">
<score-partwise version="3.0">
    <identification>
        <encoding>
            <software>audiveris 4.3.${program.revision}</software>
            <software>ProxyMusic 3.0.110</software>
            <encoding-date>2014-07-25</encoding-date>
        </encoding>
        <source>/Users/axprin/Desktop/phil-page-0.jpg</source>
    </identification>
    <defaults>
        <scaling>
            <millimeters>7.4507</millimeters>
            <tenths>40</tenths>
        </scaling>
        <page-layout>
            <page-height>1500</page-height>
            <page-width>1159</page-width>
            <page-margins type="both">
                <left-margin>80</left-margin>
                <right-margin>80</right-margin>
                <top-margin>80</top-margin>
                <bottom-margin>80</bottom-margin>
            </page-margins>
        </page-layout>
        <lyric-font font-family="Serif" font-size="10"/>
    </defaults>
    <part-list>
        <score-part id="P1">
            <part-name>Part_1</part-name>
            <score-instrument id="P1-I1">
                <instrument-name>Acoustic Grand Piano</instrument-name>
            </score-instrument>
            <midi-instrument id="P1-I1">
                <midi-channel>1</midi-channel>
                <midi-program>1</midi-program>
                <volume>78</volume>
            </midi-instrument>
        </score-part>
    </part-list>
    <part id="P1">
        <measure number="1" width="90">
            <print>
                <system-layout>
                    <system-margins>
                        <left-margin>125</left-margin>
                        <right-margin>-11</right-margin>
                    </system-margins>
                    <top-system-distance>196</top-system-distance>
                </system-layout>
                <staff-layout number="2">
                    <staff-distance>78</staff-distance>
                </staff-layout>
                <measure-numbering>system</measure-numbering>
            </print>
            <attributes>
                <divisions>4</divisions>
                <staves>2</staves>
                <staff-details print-object="yes"/>
            </attributes>
            <barline location="right">
                <bar-style>heavy-light</bar-style>
            </barline>
            <direction>
                <direction-type>
                    <words></words>
                </direction-type>
                <sound tempo="120"/>
            </direction>
        </measure>
        <measure number="2" width="278">
            <print new-system="no"/>
            <barline location="left">
                <bar-style>heavy-light</bar-style>
            </barline>
        </measure>
        <measure number="3" width="250">
            <print new-system="no"/>
        </measure>
        <measure number="4" width="267">
            <print new-system="no"/>
        </measure>
        <measure number="4" width="285">
            <print new-system="yes">
                <system-layout>
                    <system-margins>
                        <left-margin>56</left-margin>
                        <right-margin>20</right-margin>
                    </system-margins>
                    <system-distance>135</system-distance>
                </system-layout>
                <staff-layout number="2">
                    <staff-distance>77</staff-distance>
                </staff-layout>
            </print>
            <attributes>
                <key>
                    <fifths>-1</fifths>
                </key>
                <clef number="1">
                    <sign>G</sign>
                    <line>2</line>
                </clef>
                <clef number="2">
                    <sign>F</sign>
                    <line>4</line>
                </clef>
                <staff-details print-object="yes"/>
            </attributes>
            <note default-x="89">
                <pitch>
                    <step>D</step>
                    <octave>6</octave>
                </pitch>
                <duration>2</duration>
                <voice>1</voice>
                <type>eighth</type>
                <stem default-y="-35">down</stem>
                <staff>1</staff>
                <beam number="1">begin</beam>
                <notations>
                    <articulations>
                        <staccatissimo default-y="6" placement="below"/>
                    </articulations>
                    <slur type="start" number="1" placement="above" default-x="5" default-y="34" bezier-x="11" bezier-y="42"/>
                </notations>
            </note>
            <note default-x="89">
                <chord/>
                <pitch>
                    <step>A</step>
                    <octave>5</octave>
                </pitch>
                <duration>2</duration>
                <voice>1</voice>
                <type>eighth</type>
                <stem default-y="-35">down</stem>
                <staff>1</staff>
                <beam number="1">begin</beam>
            </note>
            <note default-x="89">
                <chord/>
                <pitch>
                    <step>F</step>
                    <alter>1</alter>
                    <octave>5</octave>
                </pitch>
                <duration>2</duration>
                <voice>1</voice>
                <type>eighth</type>
                <accidental>sharp</accidental>
                <stem default-y="-35">down</stem>
                <staff>1</staff>
                <beam number="1">begin</beam>
            </note>
            <note default-x="114">
                <pitch>
                    <step>C</step>
                    <octave>6</octave>
                </pitch>
                <duration>2</duration>
                <voice>1</voice>
                <type>eighth</type>
                <stem default-y="-32">down</stem>
                <staff>1</staff>
                <beam number="1">end</beam>
                <notations>
                    <articulations>
                        <staccato default-y="30" placement="above"/>
                    </articulations>
                    <slur type="stop" number="1" default-x="5" default-y="38" bezier-x="-3" bezier-y="43"/>
                </notations>
            </note>
            <note default-x="137">
                <rest/>
                <duration>2</duration>
                <voice>1</voice>
                <type>eighth</type>
                <staff>1</staff>
            </note>
            <note default-x="163">
                <pitch>
                    <step>D</step>
                    <octave>6</octave>
                </pitch>
                <duration>2</duration>
                <voice>1</voice>
                <type>eighth</type>
                <stem default-y="-35">down</stem>
                <staff>1</staff>
                <beam number="1">begin</beam>
                <notations>
                    <slur type="start" number="1" placement="above" default-x="5" default-y="34" bezier-x="11" bezier-y="42"/>
                </notations>
            </note>
            <note default-x="163">
                <chord/>
                <pitch>
                    <step>A</step>
                    <octave>5</octave>
                </pitch>
                <duration>2</duration>
                <voice>1</voice>
                <type>eighth</type>
                <stem default-y="-35">down</stem>
                <staff>1</staff>
                <beam number="1">begin</beam>
            </note>
            <note default-x="163">
                <chord/>
                <pitch>
                    <step>F</step>
                    <alter>1</alter>
                    <octave>5</octave>
                </pitch>
                <duration>2</duration>
                <voice>1</voice>
                <type>eighth</type>
                <stem default-y="-35">down</stem>
                <staff>1</staff>
                <beam number="1">begin</beam>
            </note>
            <note default-x="187">
                <pitch>
                    <step>C</step>
                    <octave>6</octave>
                </pitch>
                <duration>2</duration>
                <voice>1</voice>
                <type>eighth</type>
                <stem default-y="-32">down</stem>
                <staff>1</staff>
                <beam number="1">end</beam>
                <notations>
                    <articulations>
                        <staccato default-y="30" placement="above"/>
                    </articulations>
                    <slur type="stop" number="1" default-x="5" default-y="38" bezier-x="-3" bezier-y="43"/>
                </notations>
            </note>
            <note default-x="210">
                <rest/>
                <duration>2</duration>
                <voice>1</voice>
                <type>eighth</type>
                <staff>1</staff>
            </note>
            <note default-x="236">
                <pitch>
                    <step>D</step>
                    <octave>6</octave>
                </pitch>
                <duration>2</duration>
                <voice>1</voice>
                <type>eighth</type>
                <stem default-y="-35">down</stem>
                <staff>1</staff>
                <beam number="1">begin</beam>
                <notations>
                    <slur type="start" number="1" placement="above" default-x="5" default-y="34" bezier-x="12" bezier-y="40"/>
                </notations>
            </note>
            <note default-x="236">
                <chord/>
                <pitch>
                    <step>A</step>
                    <octave>5</octave>
                </pitch>
                <duration>2</duration>
                <voice>1</voice>
                <type>eighth</type>
                <stem default-y="-35">down</stem>
                <staff>1</staff>
                <beam number="1">begin</beam>
            </note>
            <note default-x="236">
                <chord/>
                <pitch>
                    <step>F</step>
                    <alter>1</alter>
                    <octave>5</octave>
                </pitch>
                <duration>2</duration>
                <voice>1</voice>
                <type>eighth</type>
                <stem default-y="-35">down</stem>
                <staff>1</staff>
                <beam number="1">begin</beam>
            </note>
            <note default-x="260">
                <pitch>
                    <step>B</step>
                    <alter>-1</alter>
                    <octave>5</octave>
                </pitch>
                <duration>2</duration>
                <voice>1</voice>
                <type>eighth</type>
                <stem default-y="-32">down</stem>
                <staff>1</staff>
                <beam number="1">end</beam>
                <notations>
                    <articulations>
                        <staccato default-y="25" placement="above"/>
                    </articulations>
                    <slur type="stop" number="1" default-x="5" default-y="32" bezier-x="-1" bezier-y="39"/>
                </notations>
            </note>
            <backup>
                <duration>16</duration>
            </backup>
            <note default-x="89">
                <pitch>
                    <step>D</step>
                    <octave>3</octave>
                </pitch>
                <duration>4</duration>
                <voice>2</voice>
                <type>quarter</type>
                <stem default-y="-54">down</stem>
                <staff>2</staff>
            </note>
            <note default-x="138">
                <pitch>
                    <step>A</step>
                    <octave>3</octave>
                </pitch>
                <duration>4</duration>
                <voice>2</voice>
                <type>quarter</type>
                <stem default-y="-45">down</stem>
                <staff>2</staff>
            </note>
            <note default-x="138">
                <chord/>
                <pitch>
                    <step>F</step>
                    <alter>1</alter>
                    <octave>3</octave>
                </pitch>
                <duration>4</duration>
                <voice>2</voice>
                <type>quarter</type>
                <accidental>sharp</accidental>
                <stem default-y="-45">down</stem>
                <staff>2</staff>
            </note>
            <note default-x="186">
                <pitch>
                    <step>A</step>
                    <octave>2</octave>
                </pitch>
                <duration>4</duration>
                <voice>2</voice>
                <type>quarter</type>
                <stem default-y="0">up</stem>
                <staff>2</staff>
            </note>
            <note default-x="236">
                <pitch>
                    <step>A</step>
                    <octave>3</octave>
                </pitch>
                <duration>4</duration>
                <voice>2</voice>
                <type>quarter</type>
                <stem default-y="-45">down</stem>
                <staff>2</staff>
            </note>
            <note default-x="236">
                <chord/>
                <pitch>
                    <step>F</step>
                    <alter>1</alter>
                    <octave>3</octave>
                </pitch>
                <duration>4</duration>
                <voice>2</voice>
                <type>quarter</type>
                <stem default-y="-45">down</stem>
                <staff>2</staff>
            </note>
        </measure>
        <measure number="5" width="211">
            <print new-system="no"/>
            <note default-x="17">
                <pitch>
                    <step>C</step>
                    <octave>6</octave>
                </pitch>
                <duration>2</duration>
                <voice>1</voice>
                <type>eighth</type>
                <stem default-y="-44">down</stem>
                <staff>1</staff>
                <beam number="1">begin</beam>
                <notations>
                    <slur type="start" number="1" placement="above" default-x="5" default-y="30" bezier-x="11" bezier-y="37"/>
                </notations>
            </note>
            <note default-x="17">
                <chord/>
                <pitch>
                    <step>G</step>
                    <octave>5</octave>
                </pitch>
                <duration>2</duration>
                <voice>1</voice>
                <type>eighth</type>
                <stem default-y="-44">down</stem>
                <staff>1</staff>
                <beam number="1">begin</beam>
            </note>
            <note default-x="17">
                <chord/>
                <pitch>
                    <step>D</step>
                    <octave>5</octave>
                </pitch>
                <duration>2</duration>
                <voice>1</voice>
                <type>eighth</type>
                <stem default-y="-44">down</stem>
                <staff>1</staff>
                <beam number="1">begin</beam>
            </note>
            <note default-x="41">
                <pitch>
                    <step>B</step>
                    <alter>-1</alter>
                    <octave>5</octave>
                </pitch>
                <duration>2</duration>
                <voice>1</voice>
                <type>eighth</type>
                <stem default-y="-40">down</stem>
                <staff>1</staff>
                <beam number="1">end</beam>
                <notations>
                    <articulations>
                        <staccato default-y="25" placement="above"/>
                    </articulations>
                    <slur type="stop" number="1" default-x="5" default-y="32" bezier-x="-2" bezier-y="38"/>
                </notations>
            </note>
            <note default-x="65">
                <rest/>
                <duration>2</duration>
                <voice>1</voice>
                <type>eighth</type>
                <staff>1</staff>
            </note>
            <note default-x="90">
                <pitch>
                    <step>C</step>
                    <octave>6</octave>
                </pitch>
                <duration>2</duration>
                <voice>1</voice>
                <type>eighth</type>
                <stem default-y="-44">down</stem>
                <staff>1</staff>
                <beam number="1">begin</beam>
                <notations>
                    <slur type="start" number="1" placement="above" default-x="5" default-y="30" bezier-x="11" bezier-y="37"/>
                </notations>
            </note>
            <note default-x="90">
                <chord/>
                <pitch>
                    <step>G</step>
                    <octave>5</octave>
                </pitch>
                <duration>2</duration>
                <voice>1</voice>
                <type>eighth</type>
                <stem default-y="-44">down</stem>
                <staff>1</staff>
                <beam number="1">begin</beam>
            </note>
            <note default-x="90">
                <chord/>
                <pitch>
                    <step>D</step>
                    <octave>5</octave>
                </pitch>
                <duration>2</duration>
                <voice>1</voice>
                <type>eighth</type>
                <stem default-y="-44">down</stem>
                <staff>1</staff>
                <beam number="1">begin</beam>
            </note>
            <note default-x="115">
                <pitch>
                    <step>B</step>
                    <alter>-1</alter>
                    <octave>5</octave>
                </pitch>
                <duration>2</duration>
                <voice>1</voice>
                <type>eighth</type>
                <stem default-y="-40">down</stem>
                <staff>1</staff>
                <beam number="1">end</beam>
                <notations>
                    <articulations>
                        <staccato default-y="25" placement="above"/>
                    </articulations>
                    <slur type="stop" number="1" default-x="5" default-y="32" bezier-x="-2" bezier-y="38"/>
                </notations>
            </note>
            <note default-x="138">
                <rest/>
                <duration>2</duration>
                <voice>1</voice>
                <type>eighth</type>
                <staff>1</staff>
            </note>
            <note default-x="164">
                <pitch>
                    <step>C</step>
                    <octave>6</octave>
                </pitch>
                <duration>2</duration>
                <voice>1</voice>
                <type>eighth</type>
                <stem default-y="-44">down</stem>
                <staff>1</staff>
                <beam number="1">begin</beam>
                <notations>
                    <slur type="start" number="1" placement="above" default-x="5" default-y="30" bezier-x="11" bezier-y="37"/>
                </notations>
            </note>
            <note default-x="164">
                <chord/>
                <pitch>
                    <step>G</step>
                    <octave>5</octave>
                </pitch>
                <duration>2</duration>
                <voice>1</voice>
                <type>eighth</type>
                <stem default-y="-44">down</stem>
                <staff>1</staff>
                <beam number="1">begin</beam>
            </note>
            <note default-x="164">
                <chord/>
                <pitch>
                    <step>D</step>
                    <octave>5</octave>
                </pitch>
                <duration>2</duration>
                <voice>1</voice>
                <type>eighth</type>
                <stem default-y="-44">down</stem>
                <staff>1</staff>
                <beam number="1">begin</beam>
            </note>
            <note default-x="188">
                <pitch>
                    <step>B</step>
                    <alter>-1</alter>
                    <octave>5</octave>
                </pitch>
                <duration>2</duration>
                <voice>1</voice>
                <type>eighth</type>
                <stem default-y="-40">down</stem>
                <staff>1</staff>
                <beam number="1">end</beam>
                <notations>
                    <articulations>
                        <staccato default-y="25" placement="above"/>
                    </articulations>
                    <slur type="stop" number="1" default-x="5" default-y="32" bezier-x="-2" bezier-y="38"/>
                </notations>
            </note>
            <backup>
                <duration>16</duration>
            </backup>
            <note default-x="17">
                <pitch>
                    <step>G</step>
                    <octave>3</octave>
                </pitch>
                <duration>4</duration>
                <voice>2</voice>
                <type>quarter</type>
                <stem default-y="-40">down</stem>
                <staff>2</staff>
            </note>
            <note default-x="66">
                <pitch>
                    <step>D</step>
                    <octave>4</octave>
                </pitch>
                <duration>4</duration>
                <voice>2</voice>
                <type>quarter</type>
                <stem default-y="-30">down</stem>
                <staff>2</staff>
            </note>
            <note default-x="66">
                <chord/>
                <pitch>
                    <step>B</step>
                    <alter>-1</alter>
                    <octave>3</octave>
                </pitch>
                <duration>4</duration>
                <voice>2</voice>
                <type>quarter</type>
                <stem default-y="-30">down</stem>
                <staff>2</staff>
            </note>
            <note default-x="115">
                <pitch>
                    <step>D</step>
                    <octave>3</octave>
                </pitch>
                <duration>4</duration>
                <voice>2</voice>
                <type>quarter</type>
                <stem default-y="-54">down</stem>
                <staff>2</staff>
            </note>
            <note default-x="164">
                <pitch>
                    <step>D</step>
                    <octave>4</octave>
                </pitch>
                <duration>4</duration>
                <voice>2</voice>
                <type>quarter</type>
                <stem default-y="-30">down</stem>
                <staff>2</staff>
            </note>
            <note default-x="164">
                <chord/>
                <pitch>
                    <step>B</step>
                    <alter>-1</alter>
                    <octave>3</octave>
                </pitch>
                <duration>4</duration>
                <voice>2</voice>
                <type>quarter</type>
                <stem default-y="-30">down</stem>
                <staff>2</staff>
            </note>
        </measure>
        <measure number="6" width="207">
            <print new-system="no"/>
            <note default-x="14">
                <rest/>
                <duration>2</duration>
                <voice>1</voice>
                <type>eighth</type>
                <staff>1</staff>
            </note>
            <note default-x="39">
                <pitch>
                    <step>C</step>
                    <octave>6</octave>
                </pitch>
                <duration>2</duration>
                <voice>1</voice>
                <type>eighth</type>
                <stem default-y="-44">down</stem>
                <staff>1</staff>
                <beam number="1">begin</beam>
                <notations>
                    <slur type="start" number="1" placement="above" default-x="5" default-y="30" bezier-x="11" bezier-y="37"/>
                </notations>
            </note>
            <note default-x="39">
                <chord/>
                <pitch>
                    <step>G</step>
                    <octave>5</octave>
                </pitch>
                <duration>2</duration>
                <voice>1</voice>
                <type>eighth</type>
                <stem default-y="-44">down</stem>
                <staff>1</staff>
                <beam number="1">begin</beam>
            </note>
            <note default-x="39">
                <chord/>
                <pitch>
                    <step>D</step>
                    <octave>5</octave>
                </pitch>
                <duration>2</duration>
                <voice>1</voice>
                <type>eighth</type>
                <stem default-y="-44">down</stem>
                <staff>1</staff>
                <beam number="1">begin</beam>
            </note>
            <note default-x="63">
                <pitch>
                    <step>B</step>
                    <alter>-1</alter>
                    <octave>5</octave>
                </pitch>
                <duration>2</duration>
                <voice>1</voice>
                <type>eighth</type>
                <stem default-y="-40">down</stem>
                <staff>1</staff>
                <beam number="1">end</beam>
                <notations>
                    <articulations>
                        <staccato default-y="25" placement="above"/>
                    </articulations>
                    <slur type="stop" number="1" default-x="5" default-y="32" bezier-x="-2" bezier-y="38"/>
                </notations>
            </note>
            <note default-x="86">
                <rest/>
                <duration>2</duration>
                <voice>1</voice>
                <type>eighth</type>
                <staff>1</staff>
            </note>
            <note default-x="111">
                <pitch>
                    <step>C</step>
                    <octave>6</octave>
                </pitch>
                <duration>2</duration>
                <voice>1</voice>
                <type>eighth</type>
                <stem default-y="-44">down</stem>
                <staff>1</staff>
                <beam number="1">begin</beam>
                <notations>
                    <slur type="start" number="1" placement="above" default-x="5" default-y="30" bezier-x="11" bezier-y="37"/>
                </notations>
            </note>
            <note default-x="111">
                <chord/>
                <pitch>
                    <step>G</step>
                    <octave>5</octave>
                </pitch>
                <duration>2</duration>
                <voice>1</voice>
                <type>eighth</type>
                <stem default-y="-44">down</stem>
                <staff>1</staff>
                <beam number="1">begin</beam>
            </note>
            <note default-x="111">
                <chord/>
                <pitch>
                    <step>D</step>
                    <octave>5</octave>
                </pitch>
                <duration>2</duration>
                <voice>1</voice>
                <type>eighth</type>
                <stem default-y="-44">down</stem>
                <staff>1</staff>
                <beam number="1">begin</beam>
            </note>
            <note default-x="135">
                <pitch>
                    <step>B</step>
                    <alter>-1</alter>
                    <octave>5</octave>
                </pitch>
                <duration>2</duration>
                <voice>1</voice>
                <type>eighth</type>
                <stem default-y="-40">down</stem>
                <staff>1</staff>
                <beam number="1">end</beam>
                <notations>
                    <articulations>
                        <staccato default-y="25" placement="above"/>
                    </articulations>
                    <slur type="stop" number="1" default-x="5" default-y="32" bezier-x="-2" bezier-y="38"/>
                </notations>
            </note>
            <note default-x="158">
                <rest/>
                <duration>2</duration>
                <voice>1</voice>
                <type>eighth</type>
                <staff>1</staff>
            </note>
            <note default-x="184">
                <pitch>
                    <step>C</step>
                    <octave>6</octave>
                </pitch>
                <duration>2</duration>
                <voice>1</voice>
                <type>eighth</type>
                <stem default-y="-45">down</stem>
                <staff>1</staff>
            </note>
            <note default-x="184">
                <chord/>
                <pitch>
                    <step>G</step>
                    <octave>5</octave>
                </pitch>
                <duration>2</duration>
                <voice>1</voice>
                <type>eighth</type>
                <stem default-y="-45">down</stem>
                <staff>1</staff>
            </note>
            <note default-x="184">
                <chord/>
                <pitch>
                    <step>D</step>
                    <octave>5</octave>
                </pitch>
                <duration>2</duration>
                <voice>1</voice>
                <type>eighth</type>
                <stem default-y="-45">down</stem>
                <staff>1</staff>
            </note>
            <backup>
                <duration>16</duration>
            </backup>
            <note default-x="15">
                <pitch>
                    <step>G</step>
                    <octave>3</octave>
                </pitch>
                <duration>4</duration>
                <voice>2</voice>
                <type>quarter</type>
                <stem default-y="-40">down</stem>
                <staff>2</staff>
            </note>
            <note default-x="63">
                <pitch>
                    <step>D</step>
                    <octave>4</octave>
                </pitch>
                <duration>4</duration>
                <voice>2</voice>
                <type>quarter</type>
                <stem default-y="-30">down</stem>
                <staff>2</staff>
            </note>
            <note default-x="63">
                <chord/>
                <pitch>
                    <step>B</step>
                    <alter>-1</alter>
                    <octave>3</octave>
                </pitch>
                <duration>4</duration>
                <voice>2</voice>
                <type>quarter</type>
                <stem default-y="-30">down</stem>
                <staff>2</staff>
            </note>
            <note default-x="111">
                <pitch>
                    <step>D</step>
                    <octave>3</octave>
                </pitch>
                <duration>4</duration>
                <voice>2</voice>
                <type>quarter</type>
                <stem default-y="-54">down</stem>
                <staff>2</staff>
            </note>
            <note default-x="160">
                <pitch>
                    <step>D</step>
                    <octave>4</octave>
                </pitch>
                <duration>4</duration>
                <voice>2</voice>
                <type>quarter</type>
                <stem default-y="-30">down</stem>
                <staff>2</staff>
            </note>
            <note default-x="160">
                <chord/>
                <pitch>
                    <step>B</step>
                    <alter>-1</alter>
                    <octave>3</octave>
                </pitch>
                <duration>4</duration>
                <voice>2</voice>
                <type>quarter</type>
                <stem default-y="-30">down</stem>
                <staff>2</staff>
            </note>
        </measure>
        <measure number="7" width="220">
            <print new-system="no"/>
            <note default-x="25">
                <pitch>
                    <step>B</step>
                    <octave>5</octave>
                </pitch>
                <duration>2</duration>
                <voice>1</voice>
                <type>eighth</type>
                <accidental>natural</accidental>
                <stem default-y="-44">down</stem>
                <staff>1</staff>
                <beam number="1">begin</beam>
                <notations>
                    <slur type="start" number="1" placement="above" default-x="5" default-y="25" bezier-x="11" bezier-y="32"/>
                </notations>
            </note>
            <note default-x="25">
                <chord/>
                <pitch>
                    <step>F</step>
                    <octave>5</octave>
                </pitch>
                <duration>2</duration>
                <voice>1</voice>
                <type>eighth</type>
                <stem default-y="-44">down</stem>
                <staff>1</staff>
                <beam number="1">begin</beam>
            </note>
            <note default-x="25">
                <chord/>
                <pitch>
                    <step>D</step>
                    <octave>5</octave>
                </pitch>
                <duration>2</duration>
                <voice>1</voice>
                <type>eighth</type>
                <stem default-y="-44">down</stem>
                <staff>1</staff>
                <beam number="1">begin</beam>
            </note>
            <note default-x="50">
                <pitch>
                    <step>A</step>
                    <octave>5</octave>
                </pitch>
                <duration>2</duration>
                <voice>1</voice>
                <type>eighth</type>
                <stem default-y="-40">down</stem>
                <staff>1</staff>
                <beam number="1">end</beam>
                <notations>
                    <articulations>
                        <staccato default-y="20" placement="above"/>
                    </articulations>
                    <slur type="stop" number="1" default-x="6" default-y="27" bezier-x="-2" bezier-y="33"/>
                </notations>
            </note>
            <note default-x="73">
                <rest/>
                <duration>2</duration>
                <voice>1</voice>
                <type>eighth</type>
                <staff>1</staff>
            </note>
            <note default-x="99">
                <pitch>
                    <step>B</step>
                    <octave>5</octave>
                </pitch>
                <duration>2</duration>
                <voice>1</voice>
                <type>eighth</type>
                <stem default-y="-44">down</stem>
                <staff>1</staff>
                <beam number="1">begin</beam>
                <notations>
                    <slur type="start" number="1" placement="above" default-x="5" default-y="25" bezier-x="11" bezier-y="32"/>
                </notations>
            </note>
            <note default-x="99">
                <chord/>
                <pitch>
                    <step>F</step>
                    <octave>5</octave>
                </pitch>
                <duration>2</duration>
                <voice>1</voice>
                <type>eighth</type>
                <stem default-y="-44">down</stem>
                <staff>1</staff>
                <beam number="1">begin</beam>
            </note>
            <note default-x="99">
                <chord/>
                <pitch>
                    <step>D</step>
                    <octave>5</octave>
                </pitch>
                <duration>2</duration>
                <voice>1</voice>
                <type>eighth</type>
                <stem default-y="-44">down</stem>
                <staff>1</staff>
                <beam number="1">begin</beam>
            </note>
            <note default-x="123">
                <pitch>
                    <step>A</step>
                    <octave>5</octave>
                </pitch>
                <duration>2</duration>
                <voice>1</voice>
                <type>eighth</type>
                <stem default-y="-40">down</stem>
                <staff>1</staff>
                <beam number="1">end</beam>
                <notations>
                    <articulations>
                        <staccato default-y="20" placement="above"/>
                    </articulations>
                    <slur type="stop" number="1" default-x="5" default-y="27" bezier-x="-2" bezier-y="33"/>
                </notations>
            </note>
            <note default-x="147">
                <rest/>
                <duration>2</duration>
                <voice>1</voice>
                <type>eighth</type>
                <staff>1</staff>
            </note>
            <note default-x="172">
                <pitch>
                    <step>B</step>
                    <octave>5</octave>
                </pitch>
                <duration>2</duration>
                <voice>1</voice>
                <type>eighth</type>
                <stem default-y="-44">down</stem>
                <staff>1</staff>
                <beam number="1">begin</beam>
                <notations>
                    <slur type="start" number="1" placement="above" default-x="5" default-y="25" bezier-x="11" bezier-y="32"/>
                </notations>
            </note>
            <note default-x="172">
                <chord/>
                <pitch>
                    <step>F</step>
                    <octave>5</octave>
                </pitch>
                <duration>2</duration>
                <voice>1</voice>
                <type>eighth</type>
                <stem default-y="-44">down</stem>
                <staff>1</staff>
                <beam number="1">begin</beam>
            </note>
            <note default-x="172">
                <chord/>
                <pitch>
                    <step>D</step>
                    <octave>5</octave>
                </pitch>
                <duration>2</duration>
                <voice>1</voice>
                <type>eighth</type>
                <stem default-y="-44">down</stem>
                <staff>1</staff>
                <beam number="1">begin</beam>
            </note>
            <note default-x="197">
                <pitch>
                    <step>A</step>
                    <octave>5</octave>
                </pitch>
                <duration>2</duration>
                <voice>1</voice>
                <type>eighth</type>
                <stem default-y="-40">down</stem>
                <staff>1</staff>
                <beam number="1">end</beam>
                <notations>
                    <articulations>
                        <staccato default-y="20" placement="above"/>
                    </articulations>
                    <slur type="stop" number="1" default-x="5" default-y="27" bezier-x="-2" bezier-y="33"/>
                </notations>
            </note>
            <backup>
                <duration>16</duration>
            </backup>
            <note default-x="25">
                <pitch>
                    <step>G</step>
                    <octave>3</octave>
                </pitch>
                <duration>4</duration>
                <voice>2</voice>
                <type>quarter</type>
                <stem default-y="-40">down</stem>
                <staff>2</staff>
            </note>
            <note default-x="74">
                <pitch>
                    <step>D</step>
                    <octave>4</octave>
                </pitch>
                <duration>4</duration>
                <voice>2</voice>
                <type>quarter</type>
                <stem default-y="-30">down</stem>
                <staff>2</staff>
            </note>
            <note default-x="74">
                <chord/>
                <pitch>
                    <step>B</step>
                    <octave>3</octave>
                </pitch>
                <duration>4</duration>
                <voice>2</voice>
                <type>quarter</type>
                <accidental>natural</accidental>
                <stem default-y="-30">down</stem>
                <staff>2</staff>
            </note>
            <note default-x="123">
                <pitch>
                    <step>D</step>
                    <octave>3</octave>
                </pitch>
                <duration>4</duration>
                <voice>2</voice>
                <type>quarter</type>
                <stem default-y="-54">down</stem>
                <staff>2</staff>
            </note>
            <note default-x="172">
                <pitch>
                    <step>D</step>
                    <octave>4</octave>
                </pitch>
                <duration>4</duration>
                <voice>2</voice>
                <type>quarter</type>
                <stem default-y="-45">down</stem>
                <staff>2</staff>
            </note>
            <note default-x="172">
                <chord/>
                <pitch>
                    <step>B</step>
                    <octave>3</octave>
                </pitch>
                <duration>4</duration>
                <voice>2</voice>
                <type>quarter</type>
                <stem default-y="-45">down</stem>
                <staff>2</staff>
            </note>
            <note default-x="172">
                <chord/>
                <pitch>
                    <step>F</step>
                    <octave>3</octave>
                </pitch>
                <duration>4</duration>
                <voice>2</voice>
                <type>quarter</type>
                <stem default-y="-45">down</stem>
                <staff>2</staff>
            </note>
        </measure>
        <measure number="8" width="307">
            <print new-system="yes">
                <system-layout>
                    <system-margins>
                        <left-margin>56</left-margin>
                        <right-margin>-11</right-margin>
                    </system-margins>
                    <system-distance>135</system-distance>
                </system-layout>
                <staff-layout number="2">
                    <staff-distance>77</staff-distance>
                </staff-layout>
            </print>
            <attributes>
                <time>
                    <beats>3</beats>
                    <beat-type>4</beat-type>
                </time>
                <staff-details print-object="yes"/>
            </attributes>
            <barline location="right">
                <bar-style>light-heavy</bar-style>
                <repeat direction="backward"/>
            </barline>
            <note default-x="110">
                <pitch>
                    <step>E</step>
                    <octave>6</octave>
                </pitch>
                <duration>2</duration>
                <voice>1</voice>
                <type>eighth</type>
                <stem default-y="-31">down</stem>
                <staff>1</staff>
                <notations>
                    <articulations>
                        <accent default-y="44" placement="above"/>
                    </articulations>
                </notations>
            </note>
            <note default-x="110">
                <chord/>
                <pitch>
                    <step>G</step>
                    <octave>5</octave>
                </pitch>
                <duration>2</duration>
                <voice>1</voice>
                <type>eighth</type>
                <stem default-y="-31">down</stem>
                <staff>1</staff>
            </note>
            <note default-x="130">
                <rest/>
                <duration>2</duration>
                <voice>1</voice>
                <type>eighth</type>
                <staff>1</staff>
            </note>
            <note default-x="151">
                <rest/>
                <duration>2</duration>
                <voice>1</voice>
                <type>eighth</type>
                <staff>1</staff>
            </note>
            <direction placement="below">
                <direction-type>
                    <wedge type="crescendo" spread="0" default-y="-77"/>
                </direction-type>
                <staff>1</staff>
            </direction>
            <note default-x="174">
                <pitch>
                    <step>E</step>
                    <octave>5</octave>
                </pitch>
                <duration>1</duration>
                <voice>1</voice>
                <type>16th</type>
                <stem default-y="-64">down</stem>
                <staff>1</staff>
                <beam number="1">begin</beam>
                <beam number="2">begin</beam>
                <notations>
                    <slur type="start" number="1" placement="above" default-x="5" default-y="5" bezier-x="8" bezier-y="12"/>
                </notations>
            </note>
            <note default-x="174">
                <chord/>
                <pitch>
                    <step>G</step>
                    <octave>4</octave>
                </pitch>
                <duration>1</duration>
                <voice>1</voice>
                <type>16th</type>
                <stem default-y="-64">down</stem>
                <staff>1</staff>
                <beam number="1">begin</beam>
                <beam number="2">begin</beam>
            </note>
            <note default-x="191">
                <pitch>
                    <step>F</step>
                    <octave>5</octave>
                </pitch>
                <duration>1</duration>
                <voice>1</voice>
                <type>16th</type>
                <stem default-y="-59">down</stem>
                <staff>1</staff>
                <beam number="1">end</beam>
                <beam number="2">end</beam>
                <notations>
                    <slur type="stop" number="1" default-x="5" default-y="10" bezier-x="-1" bezier-y="14"/>
                </notations>
            </note>
            <note default-x="191">
                <chord/>
                <pitch>
                    <step>A</step>
                    <octave>4</octave>
                </pitch>
                <duration>1</duration>
                <voice>1</voice>
                <type>16th</type>
                <stem default-y="-59">down</stem>
                <staff>1</staff>
                <beam number="1">end</beam>
                <beam number="2">end</beam>
            </note>
            <note default-x="208">
                <pitch>
                    <step>G</step>
                    <octave>5</octave>
                </pitch>
                <duration>1</duration>
                <voice>1</voice>
                <type>16th</type>
                <stem default-y="-54">down</stem>
                <staff>1</staff>
                <beam number="1">begin</beam>
                <beam number="2">begin</beam>
                <notations>
                    <articulations>
                        <staccato default-y="15" placement="above"/>
                    </articulations>
                </notations>
            </note>
            <note default-x="208">
                <chord/>
                <pitch>
                    <step>B</step>
                    <alter>-1</alter>
                    <octave>4</octave>
                </pitch>
                <duration>1</duration>
                <voice>1</voice>
                <type>16th</type>
                <stem default-y="-54">down</stem>
                <staff>1</staff>
                <beam number="1">begin</beam>
                <beam number="2">begin</beam>
            </note>
            <note default-x="229">
                <pitch>
                    <step>A</step>
                    <octave>5</octave>
                </pitch>
                <duration>1</duration>
                <voice>1</voice>
                <type>16th</type>
                <stem default-y="-52">down</stem>
                <staff>1</staff>
                <beam number="1">continue</beam>
                <beam number="2">continue</beam>
                <notations>
                    <articulations>
                        <staccato default-y="20" placement="above"/>
                    </articulations>
                </notations>
            </note>
            <note default-x="229">
                <chord/>
                <pitch>
                    <step>C</step>
                    <octave>5</octave>
                </pitch>
                <duration>1</duration>
                <voice>1</voice>
                <type>16th</type>
                <stem default-y="-52">down</stem>
                <staff>1</staff>
                <beam number="1">continue</beam>
                <beam number="2">continue</beam>
            </note>
            <note default-x="252">
                <pitch>
                    <step>B</step>
                    <alter>-1</alter>
                    <octave>5</octave>
                </pitch>
                <duration>1</duration>
                <voice>1</voice>
                <type>16th</type>
                <stem default-y="-51">down</stem>
                <staff>1</staff>
                <beam number="1">continue</beam>
                <beam number="2">continue</beam>
                <notations>
                    <articulations>
                        <staccato default-y="25" placement="above"/>
                    </articulations>
                </notations>
            </note>
            <note default-x="252">
                <chord/>
                <pitch>
                    <step>D</step>
                    <octave>5</octave>
                </pitch>
                <duration>1</duration>
                <voice>1</voice>
                <type>16th</type>
                <stem default-y="-51">down</stem>
                <staff>1</staff>
                <beam number="1">continue</beam>
                <beam number="2">continue</beam>
            </note>
            <direction>
                <direction-type>
                    <wedge type="stop" spread="16"/>
                </direction-type>
                <staff>1</staff>
            </direction>
            <note default-x="275">
                <pitch>
                    <step>C</step>
                    <octave>6</octave>
                </pitch>
                <duration>1</duration>
                <voice>1</voice>
                <type>16th</type>
                <stem default-y="-49">down</stem>
                <staff>1</staff>
                <beam number="1">end</beam>
                <beam number="2">end</beam>
                <notations>
                    <articulations>
                        <staccato default-y="30" placement="above"/>
                    </articulations>
                </notations>
            </note>
            <note default-x="275">
                <chord/>
                <pitch>
                    <step>E</step>
                    <octave>5</octave>
                </pitch>
                <duration>1</duration>
                <voice>1</voice>
                <type>16th</type>
                <stem default-y="-49">down</stem>
                <staff>1</staff>
                <beam number="1">end</beam>
                <beam number="2">end</beam>
            </note>
            <backup>
                <duration>12</duration>
            </backup>
            <note default-x="109">
                <pitch>
                    <step>C</step>
                    <octave>3</octave>
                </pitch>
                <duration>4</duration>
                <voice>2</voice>
                <type>quarter</type>
                <stem default-y="10">up</stem>
                <staff>2</staff>
            </note>
            <note default-x="152">
                <pitch>
                    <step>B</step>
                    <alter>-1</alter>
                    <octave>3</octave>
                </pitch>
                <duration>4</duration>
                <voice>2</voice>
                <type>quarter</type>
                <stem default-y="-49">down</stem>
                <staff>2</staff>
            </note>
            <note default-x="152">
                <chord/>
                <pitch>
                    <step>G</step>
                    <octave>3</octave>
                </pitch>
                <duration>4</duration>
                <voice>2</voice>
                <type>quarter</type>
                <stem default-y="-49">down</stem>
                <staff>2</staff>
            </note>
            <note default-x="152">
                <chord/>
                <pitch>
                    <step>E</step>
                    <octave>3</octave>
                </pitch>
                <duration>4</duration>
                <voice>2</voice>
                <type>quarter</type>
                <stem default-y="-49">down</stem>
                <staff>2</staff>
            </note>
            <note default-x="207">
                <pitch>
                    <step>G</step>
                    <octave>2</octave>
                </pitch>
                <duration>4</duration>
                <voice>2</voice>
                <type>quarter</type>
                <stem default-y="-5">up</stem>
                <staff>2</staff>
            </note>
        </measure>
        <measure number="9" width="121">
            <print new-system="no"/>
            <barline location="left">
                <bar-style>light-heavy</bar-style>
            </barline>
            <attributes>
                <time>
                    <beats>6</beats>
                    <beat-type>8</beat-type>
                </time>
            </attributes>
            <note default-x="51">
                <pitch>
                    <step>D</step>
                    <octave>6</octave>
                </pitch>
                <duration>2</duration>
                <voice>1</voice>
                <type>eighth</type>
                <stem default-y="-35">down</stem>
                <staff>1</staff>
                <beam number="1">begin</beam>
            </note>
            <note default-x="51">
                <chord/>
                <pitch>
                    <step>A</step>
                    <octave>5</octave>
                </pitch>
                <duration>2</duration>
                <voice>1</voice>
                <type>eighth</type>
                <stem default-y="-35">down</stem>
                <staff>1</staff>
                <beam number="1">begin</beam>
            </note>
            <note default-x="51">
                <chord/>
                <pitch>
                    <step>F</step>
                    <octave>5</octave>
                </pitch>
                <duration>2</duration>
                <voice>1</voice>
                <type>eighth</type>
                <stem default-y="-35">down</stem>
                <staff>1</staff>
                <beam number="1">begin</beam>
                <notations>
                    <slur type="start" number="1" placement="below" default-x="-1" default-y="-42" bezier-x="3" bezier-y="-51"/>
                </notations>
            </note>
            <note default-x="74">
                <pitch>
                    <step>C</step>
                    <octave>6</octave>
                </pitch>
                <duration>2</duration>
                <voice>1</voice>
                <type>eighth</type>
                <stem default-y="-35">down</stem>
                <staff>1</staff>
                <beam number="1">end</beam>
                <notations>
                    <articulations>
                        <staccato default-y="-45" placement="below"/>
                    </articulations>
                </notations>
            </note>
            <note default-x="74">
                <chord/>
                <pitch>
                    <step>A</step>
                    <octave>5</octave>
                </pitch>
                <duration>2</duration>
                <voice>1</voice>
                <type>eighth</type>
                <stem default-y="-35">down</stem>
                <staff>1</staff>
                <beam number="1">end</beam>
            </note>
            <note default-x="74">
                <chord/>
                <pitch>
                    <step>F</step>
                    <octave>5</octave>
                </pitch>
                <duration>2</duration>
                <voice>1</voice>
                <type>eighth</type>
                <stem default-y="-35">down</stem>
                <staff>1</staff>
                <beam number="1">end</beam>
                <notations>
                    <slur type="stop" number="1" default-x="-1" default-y="-52" bezier-x="-10" bezier-y="-55"/>
                </notations>
            </note>
            <note default-x="94">
                <rest/>
                <duration>2</duration>
                <voice>1</voice>
                <type>eighth</type>
                <staff>1</staff>
            </note>
            <forward>
                <duration>6</duration>
                <voice>1</voice>
                <staff>1</staff>
            </forward>
            <backup>
                <duration>12</duration>
            </backup>
            <note default-x="50">
                <rest/>
                <duration>2</duration>
                <voice>2</voice>
                <type>eighth</type>
                <staff>2</staff>
            </note>
            <note default-x="73">
                <rest/>
                <duration>2</duration>
                <voice>2</voice>
                <type>eighth</type>
                <staff>2</staff>
            </note>
            <note default-x="94">
                <pitch>
                    <step>F</step>
                    <octave>3</octave>
                </pitch>
                <duration>2</duration>
                <voice>2</voice>
                <type>eighth</type>
                <stem default-y="25">up</stem>
                <staff>2</staff>
                <notations>
                    <articulations>
                        <tenuto default-y="-54" placement="below"/>
                    </articulations>
                </notations>
            </note>
            <note default-x="94">
                <chord/>
                <pitch>
                    <step>F</step>
                    <octave>2</octave>
                </pitch>
                <duration>2</duration>
                <voice>2</voice>
                <type>eighth</type>
                <stem default-y="25">up</stem>
                <staff>2</staff>
            </note>
            <forward>
                <duration>6</duration>
                <voice>2</voice>
                <staff>2</staff>
            </forward>
        </measure>
        <measure number="10" width="87">
            <print new-system="no"/>
            <note default-x="17">
                <pitch>
                    <step>D</step>
                    <octave>6</octave>
                </pitch>
                <duration>2</duration>
                <voice>1</voice>
                <type>eighth</type>
                <stem default-y="-35">down</stem>
                <staff>1</staff>
                <beam number="1">begin</beam>
            </note>
            <note default-x="17">
                <chord/>
                <pitch>
                    <step>A</step>
                    <octave>5</octave>
                </pitch>
                <duration>2</duration>
                <voice>1</voice>
                <type>eighth</type>
                <stem default-y="-35">down</stem>
                <staff>1</staff>
                <beam number="1">begin</beam>
            </note>
            <note default-x="17">
                <chord/>
                <pitch>
                    <step>F</step>
                    <octave>5</octave>
                </pitch>
                <duration>2</duration>
                <voice>1</voice>
                <type>eighth</type>
                <stem default-y="-35">down</stem>
                <staff>1</staff>
                <beam number="1">begin</beam>
                <notations>
                    <slur type="start" number="1" placement="below" default-x="-1" default-y="-42" bezier-x="2" bezier-y="-51"/>
                </notations>
            </note>
            <note default-x="40">
                <pitch>
                    <step>C</step>
                    <octave>6</octave>
                </pitch>
                <duration>2</duration>
                <voice>1</voice>
                <type>eighth</type>
                <stem default-y="-35">down</stem>
                <staff>1</staff>
                <beam number="1">end</beam>
                <notations>
                    <articulations>
                        <staccato default-y="-45" placement="below"/>
                    </articulations>
                </notations>
            </note>
            <note default-x="40">
                <chord/>
                <pitch>
                    <step>A</step>
                    <octave>5</octave>
                </pitch>
                <duration>2</duration>
                <voice>1</voice>
                <type>eighth</type>
                <stem default-y="-35">down</stem>
                <staff>1</staff>
                <beam number="1">end</beam>
            </note>
            <note default-x="40">
                <chord/>
                <pitch>
                    <step>F</step>
                    <octave>5</octave>
                </pitch>
                <duration>2</duration>
                <voice>1</voice>
                <type>eighth</type>
                <stem default-y="-35">down</stem>
                <staff>1</staff>
                <beam number="1">end</beam>
                <notations>
                    <slur type="stop" number="1" default-x="-1" default-y="-52" bezier-x="-10" bezier-y="-56"/>
                </notations>
            </note>
            <note default-x="60">
                <rest/>
                <duration>2</duration>
                <voice>1</voice>
                <type>eighth</type>
                <staff>1</staff>
            </note>
            <forward>
                <duration>6</duration>
                <voice>1</voice>
                <staff>1</staff>
            </forward>
            <backup>
                <duration>12</duration>
            </backup>
            <note default-x="16">
                <rest/>
                <duration>2</duration>
                <voice>2</voice>
                <type>eighth</type>
                <staff>2</staff>
            </note>
            <note default-x="39">
                <rest/>
                <duration>2</duration>
                <voice>2</voice>
                <type>eighth</type>
                <staff>2</staff>
            </note>
            <note default-x="60">
                <pitch>
                    <step>F</step>
                    <octave>3</octave>
                </pitch>
                <duration>2</duration>
                <voice>2</voice>
                <type>eighth</type>
                <stem default-y="25">up</stem>
                <staff>2</staff>
                <notations>
                    <articulations>
                        <tenuto default-y="-54" placement="below"/>
                    </articulations>
                </notations>
            </note>
            <note default-x="60">
                <chord/>
                <pitch>
                    <step>F</step>
                    <octave>2</octave>
                </pitch>
                <duration>2</duration>
                <voice>2</voice>
                <type>eighth</type>
                <stem default-y="25">up</stem>
                <staff>2</staff>
            </note>
            <forward>
                <duration>6</duration>
                <voice>2</voice>
                <staff>2</staff>
            </forward>
        </measure>
        <measure number="11" width="87">
            <print new-system="no"/>
            <note default-x="17">
                <pitch>
                    <step>D</step>
                    <octave>6</octave>
                </pitch>
                <duration>2</duration>
                <voice>1</voice>
                <type>eighth</type>
                <stem default-y="-35">down</stem>
                <staff>1</staff>
                <beam number="1">begin</beam>
            </note>
            <note default-x="17">
                <chord/>
                <pitch>
                    <step>A</step>
                    <octave>5</octave>
                </pitch>
                <duration>2</duration>
                <voice>1</voice>
                <type>eighth</type>
                <stem default-y="-35">down</stem>
                <staff>1</staff>
                <beam number="1">begin</beam>
            </note>
            <note default-x="17">
                <chord/>
                <pitch>
                    <step>F</step>
                    <octave>5</octave>
                </pitch>
                <duration>2</duration>
                <voice>1</voice>
                <type>eighth</type>
                <stem default-y="-35">down</stem>
                <staff>1</staff>
                <beam number="1">begin</beam>
                <notations>
                    <slur type="start" number="1" placement="below" default-x="-1" default-y="-42" bezier-x="3" bezier-y="-51"/>
                </notations>
            </note>
            <note default-x="40">
                <pitch>
                    <step>C</step>
                    <octave>6</octave>
                </pitch>
                <duration>2</duration>
                <voice>1</voice>
                <type>eighth</type>
                <stem default-y="-35">down</stem>
                <staff>1</staff>
                <beam number="1">end</beam>
                <notations>
                    <articulations>
                        <staccato default-y="-45" placement="below"/>
                    </articulations>
                </notations>
            </note>
            <note default-x="40">
                <chord/>
                <pitch>
                    <step>A</step>
                    <octave>5</octave>
                </pitch>
                <duration>2</duration>
                <voice>1</voice>
                <type>eighth</type>
                <stem default-y="-35">down</stem>
                <staff>1</staff>
                <beam number="1">end</beam>
            </note>
            <note default-x="40">
                <chord/>
                <pitch>
                    <step>F</step>
                    <octave>5</octave>
                </pitch>
                <duration>2</duration>
                <voice>1</voice>
                <type>eighth</type>
                <stem default-y="-35">down</stem>
                <staff>1</staff>
                <beam number="1">end</beam>
                <notations>
                    <slur type="stop" number="1" default-x="-2" default-y="-52" bezier-x="-11" bezier-y="-55"/>
                </notations>
            </note>
            <note default-x="60">
                <rest/>
                <duration>2</duration>
                <voice>1</voice>
                <type>eighth</type>
                <staff>1</staff>
            </note>
            <forward>
                <duration>6</duration>
                <voice>1</voice>
                <staff>1</staff>
            </forward>
            <backup>
                <duration>12</duration>
            </backup>
            <note default-x="16">
                <rest/>
                <duration>2</duration>
                <voice>2</voice>
                <type>eighth</type>
                <staff>2</staff>
            </note>
            <note default-x="40">
                <rest/>
                <duration>2</duration>
                <voice>2</voice>
                <type>eighth</type>
                <staff>2</staff>
            </note>
            <note default-x="60">
                <pitch>
                    <step>F</step>
                    <octave>3</octave>
                </pitch>
                <duration>2</duration>
                <voice>2</voice>
                <type>eighth</type>
                <stem default-y="25">up</stem>
                <staff>2</staff>
                <notations>
                    <articulations>
                        <tenuto default-y="-54" placement="below"/>
                    </articulations>
                </notations>
            </note>
            <note default-x="60">
                <chord/>
                <pitch>
                    <step>F</step>
                    <octave>2</octave>
                </pitch>
                <duration>2</duration>
                <voice>2</voice>
                <type>eighth</type>
                <stem default-y="25">up</stem>
                <staff>2</staff>
            </note>
            <forward>
                <duration>6</duration>
                <voice>2</voice>
                <staff>2</staff>
            </forward>
        </measure>
        <measure number="12" width="87">
            <print new-system="no"/>
            <note default-x="17">
                <pitch>
                    <step>D</step>
                    <octave>6</octave>
                </pitch>
                <duration>2</duration>
                <voice>1</voice>
                <type>eighth</type>
                <stem default-y="-35">down</stem>
                <staff>1</staff>
                <beam number="1">begin</beam>
            </note>
            <note default-x="17">
                <chord/>
                <pitch>
                    <step>A</step>
                    <octave>5</octave>
                </pitch>
                <duration>2</duration>
                <voice>1</voice>
                <type>eighth</type>
                <stem default-y="-35">down</stem>
                <staff>1</staff>
                <beam number="1">begin</beam>
            </note>
            <note default-x="17">
                <chord/>
                <pitch>
                    <step>F</step>
                    <octave>5</octave>
                </pitch>
                <duration>2</duration>
                <voice>1</voice>
                <type>eighth</type>
                <stem default-y="-35">down</stem>
                <staff>1</staff>
                <beam number="1">begin</beam>
                <notations>
                    <slur type="start" number="1" placement="below" default-x="-1" default-y="-42" bezier-x="3" bezier-y="-51"/>
                </notations>
            </note>
            <note default-x="40">
                <pitch>
                    <step>C</step>
                    <octave>6</octave>
                </pitch>
                <duration>2</duration>
                <voice>1</voice>
                <type>eighth</type>
                <stem default-y="-35">down</stem>
                <staff>1</staff>
                <beam number="1">end</beam>
                <notations>
                    <articulations>
                        <staccato default-y="-45" placement="below"/>
                    </articulations>
                </notations>
            </note>
            <note default-x="40">
                <chord/>
                <pitch>
                    <step>A</step>
                    <octave>5</octave>
                </pitch>
                <duration>2</duration>
                <voice>1</voice>
                <type>eighth</type>
                <stem default-y="-35">down</stem>
                <staff>1</staff>
                <beam number="1">end</beam>
            </note>
            <note default-x="40">
                <chord/>
                <pitch>
                    <step>F</step>
                    <octave>5</octave>
                </pitch>
                <duration>2</duration>
                <voice>1</voice>
                <type>eighth</type>
                <stem default-y="-35">down</stem>
                <staff>1</staff>
                <beam number="1">end</beam>
                <notations>
                    <slur type="stop" number="1" default-x="-1" default-y="-52" bezier-x="-10" bezier-y="-56"/>
                </notations>
            </note>
            <note default-x="60">
                <rest/>
                <duration>2</duration>
                <voice>1</voice>
                <type>eighth</type>
                <staff>1</staff>
            </note>
            <forward>
                <duration>6</duration>
                <voice>1</voice>
                <staff>1</staff>
            </forward>
            <backup>
                <duration>12</duration>
            </backup>
            <note default-x="16">
                <rest/>
                <duration>2</duration>
                <voice>2</voice>
                <type>eighth</type>
                <staff>2</staff>
            </note>
            <note default-x="40">
                <rest/>
                <duration>2</duration>
                <voice>2</voice>
                <type>eighth</type>
                <staff>2</staff>
            </note>
            <note default-x="60">
                <pitch>
                    <step>F</step>
                    <octave>3</octave>
                </pitch>
                <duration>2</duration>
                <voice>2</voice>
                <type>eighth</type>
                <stem default-y="25">up</stem>
                <staff>2</staff>
                <notations>
                    <articulations>
                        <tenuto default-y="-54" placement="below"/>
                    </articulations>
                </notations>
            </note>
            <note default-x="60">
                <chord/>
                <pitch>
                    <step>F</step>
                    <octave>2</octave>
                </pitch>
                <duration>2</duration>
                <voice>2</voice>
                <type>eighth</type>
                <stem default-y="25">up</stem>
                <staff>2</staff>
            </note>
            <forward>
                <duration>6</duration>
                <voice>2</voice>
                <staff>2</staff>
            </forward>
        </measure>
        <measure number="13" width="87">
            <print new-system="no"/>
            <note default-x="17">
                <pitch>
                    <step>E</step>
                    <octave>6</octave>
                </pitch>
                <duration>2</duration>
                <voice>1</voice>
                <type>eighth</type>
                <stem default-y="-20">down</stem>
                <staff>1</staff>
                <beam number="1">begin</beam>
                <notations>
                    <slur type="start" number="1" placement="above" default-x="5" default-y="39" bezier-x="12" bezier-y="45"/>
                </notations>
            </note>
            <note default-x="17">
                <chord/>
                <pitch>
                    <step>B</step>
                    <alter>-1</alter>
                    <octave>5</octave>
                </pitch>
                <duration>2</duration>
                <voice>1</voice>
                <type>eighth</type>
                <stem default-y="-20">down</stem>
                <staff>1</staff>
                <beam number="1">begin</beam>
            </note>
            <note default-x="40">
                <pitch>
                    <step>C</step>
                    <octave>6</octave>
                </pitch>
                <duration>2</duration>
                <voice>1</voice>
                <type>eighth</type>
                <stem default-y="-22">down</stem>
                <staff>1</staff>
                <beam number="1">end</beam>
                <notations>
                    <articulations>
                        <staccato default-y="30" placement="above"/>
                    </articulations>
                    <slur type="stop" number="1" default-x="5" default-y="37" bezier-x="-1" bezier-y="44"/>
                </notations>
            </note>
            <note default-x="40">
                <chord/>
                <pitch>
                    <step>G</step>
                    <octave>5</octave>
                </pitch>
                <duration>2</duration>
                <voice>1</voice>
                <type>eighth</type>
                <stem default-y="-22">down</stem>
                <staff>1</staff>
                <beam number="1">end</beam>
            </note>
            <note default-x="60">
                <rest/>
                <duration>2</duration>
                <voice>1</voice>
                <type>eighth</type>
                <staff>1</staff>
            </note>
            <forward>
                <duration>6</duration>
                <voice>1</voice>
                <staff>1</staff>
            </forward>
            <backup>
                <duration>12</duration>
            </backup>
            <note default-x="16">
                <rest/>
                <duration>2</duration>
                <voice>2</voice>
                <type>eighth</type>
                <staff>2</staff>
            </note>
            <note default-x="40">
                <rest/>
                <duration>2</duration>
                <voice>2</voice>
                <type>eighth</type>
                <staff>2</staff>
            </note>
            <note default-x="60">
                <pitch>
                    <step>C</step>
                    <octave>3</octave>
                </pitch>
                <duration>2</duration>
                <voice>2</voice>
                <type>eighth</type>
                <stem default-y="11">up</stem>
                <staff>2</staff>
                <notations>
                    <articulations>
                        <tenuto default-y="-69" placement="below"/>
                    </articulations>
                </notations>
            </note>
            <note default-x="60">
                <chord/>
                <pitch>
                    <step>C</step>
                    <octave>2</octave>
                </pitch>
                <duration>2</duration>
                <voice>2</voice>
                <type>eighth</type>
                <stem default-y="11">up</stem>
                <staff>2</staff>
            </note>
            <forward>
                <duration>6</duration>
                <voice>2</voice>
                <staff>2</staff>
            </forward>
        </measure>
        <measure number="14" width="88">
            <print new-system="no"/>
            <note default-x="18">
                <pitch>
                    <step>E</step>
                    <octave>6</octave>
                </pitch>
                <duration>2</duration>
                <voice>1</voice>
                <type>eighth</type>
                <stem default-y="-20">down</stem>
                <staff>1</staff>
                <beam number="1">begin</beam>
                <notations>
                    <slur type="start" number="1" placement="above" default-x="5" default-y="39" bezier-x="12" bezier-y="45"/>
                </notations>
            </note>
            <note default-x="18">
                <chord/>
                <pitch>
                    <step>B</step>
                    <alter>-1</alter>
                    <octave>5</octave>
                </pitch>
                <duration>2</duration>
                <voice>1</voice>
                <type>eighth</type>
                <stem default-y="-20">down</stem>
                <staff>1</staff>
                <beam number="1">begin</beam>
            </note>
            <note default-x="40">
                <pitch>
                    <step>C</step>
                    <octave>6</octave>
                </pitch>
                <duration>2</duration>
                <voice>1</voice>
                <type>eighth</type>
                <stem default-y="-22">down</stem>
                <staff>1</staff>
                <beam number="1">end</beam>
                <notations>
                    <articulations>
                        <staccato default-y="30" placement="above"/>
                    </articulations>
                    <slur type="stop" number="1" default-x="5" default-y="37" bezier-x="-1" bezier-y="44"/>
                </notations>
            </note>
            <note default-x="40">
                <chord/>
                <pitch>
                    <step>G</step>
                    <octave>5</octave>
                </pitch>
                <duration>2</duration>
                <voice>1</voice>
                <type>eighth</type>
                <stem default-y="-22">down</stem>
                <staff>1</staff>
                <beam number="1">end</beam>
            </note>
            <note default-x="60">
                <rest/>
                <duration>2</duration>
                <voice>1</voice>
                <type>eighth</type>
                <staff>1</staff>
            </note>
            <forward>
                <duration>6</duration>
                <voice>1</voice>
                <staff>1</staff>
            </forward>
            <backup>
                <duration>12</duration>
            </backup>
            <note default-x="16">
                <rest/>
                <duration>2</duration>
                <voice>2</voice>
                <type>eighth</type>
                <staff>2</staff>
            </note>
            <note default-x="40">
                <rest/>
                <duration>2</duration>
                <voice>2</voice>
                <type>eighth</type>
                <staff>2</staff>
            </note>
            <note default-x="58">
                <pitch>
                    <step>C</step>
                    <octave>2</octave>
                </pitch>
                <duration>2</duration>
                <voice>2</voice>
                <type>eighth</type>
                <stem default-y="11">up</stem>
                <staff>2</staff>
                <notations>
                    <articulations>
                        <tenuto default-y="-69" placement="below"/>
                    </articulations>
                </notations>
            </note>
            <note default-x="60">
                <chord/>
                <pitch>
                    <step>C</step>
                    <octave>3</octave>
                </pitch>
                <duration>2</duration>
                <voice>2</voice>
                <type>eighth</type>
                <stem default-y="11">up</stem>
                <staff>2</staff>
            </note>
            <forward>
                <duration>6</duration>
                <voice>2</voice>
                <staff>2</staff>
            </forward>
        </measure>
        <measure number="15" width="89">
            <print new-system="no"/>
            <note default-x="17">
                <pitch>
                    <step>E</step>
                    <octave>6</octave>
                </pitch>
                <duration>2</duration>
                <voice>1</voice>
                <type>eighth</type>
                <stem default-y="-20">down</stem>
                <staff>1</staff>
                <beam number="1">begin</beam>
                <notations>
                    <slur type="start" number="1" placement="above" default-x="5" default-y="39" bezier-x="12" bezier-y="45"/>
                </notations>
            </note>
            <note default-x="17">
                <chord/>
                <pitch>
                    <step>B</step>
                    <alter>-1</alter>
                    <octave>5</octave>
                </pitch>
                <duration>2</duration>
                <voice>1</voice>
                <type>eighth</type>
                <stem default-y="-20">down</stem>
                <staff>1</staff>
                <beam number="1">begin</beam>
            </note>
            <note default-x="41">
                <pitch>
                    <step>C</step>
                    <octave>6</octave>
                </pitch>
                <duration>2</duration>
                <voice>1</voice>
                <type>eighth</type>
                <stem default-y="-22">down</stem>
                <staff>1</staff>
                <beam number="1">end</beam>
                <notations>
                    <articulations>
                        <staccato default-y="30" placement="above"/>
                    </articulations>
                    <slur type="stop" number="1" default-x="5" default-y="37" bezier-x="-1" bezier-y="44"/>
                </notations>
            </note>
            <note default-x="41">
                <chord/>
                <pitch>
                    <step>G</step>
                    <octave>5</octave>
                </pitch>
                <duration>2</duration>
                <voice>1</voice>
                <type>eighth</type>
                <stem default-y="-22">down</stem>
                <staff>1</staff>
                <beam number="1">end</beam>
            </note>
            <note default-x="62">
                <rest/>
                <duration>2</duration>
                <voice>1</voice>
                <type>eighth</type>
                <staff>1</staff>
            </note>
            <forward>
                <duration>6</duration>
                <voice>1</voice>
                <staff>1</staff>
            </forward>
            <backup>
                <duration>12</duration>
            </backup>
            <note default-x="16">
                <rest/>
                <duration>2</duration>
                <voice>2</voice>
                <type>eighth</type>
                <staff>2</staff>
            </note>
            <note default-x="40">
                <rest/>
                <duration>2</duration>
                <voice>2</voice>
                <type>eighth</type>
                <staff>2</staff>
            </note>
            <note default-x="62">
                <pitch>
                    <step>C</step>
                    <octave>3</octave>
                </pitch>
                <duration>2</duration>
                <voice>2</voice>
                <type>eighth</type>
                <stem default-y="11">up</stem>
                <staff>2</staff>
                <notations>
                    <articulations>
                        <tenuto default-y="-69" placement="below"/>
                    </articulations>
                </notations>
            </note>
            <note default-x="62">
                <chord/>
                <pitch>
                    <step>C</step>
                    <octave>2</octave>
                </pitch>
                <duration>2</duration>
                <voice>2</voice>
                <type>eighth</type>
                <stem default-y="11">up</stem>
                <staff>2</staff>
            </note>
            <forward>
                <duration>6</duration>
                <voice>2</voice>
                <staff>2</staff>
            </forward>
        </measure>
        <measure number="16" width="198">
            <print new-system="yes">
                <system-layout>
                    <system-margins>
                        <left-margin>56</left-margin>
                        <right-margin>-11</right-margin>
                    </system-margins>
                    <system-distance>134</system-distance>
                </system-layout>
                <staff-layout number="2">
                    <staff-distance>78</staff-distance>
                </staff-layout>
            </print>
            <attributes>
                <staff-details print-object="yes"/>
            </attributes>
        </measure>
        <measure number="17" width="135">
            <print new-system="no"/>
        </measure>
        <measure number="18" width="114">
            <print new-system="no"/>
            <barline location="right">
                <bar-style>light-heavy</bar-style>
            </barline>
        </measure>
        <measure number="19" width="184">
            <print new-system="no"/>
            <barline location="left">
                <bar-style>light-heavy</bar-style>
            </barline>
        </measure>
        <measure number="20" width="202">
            <print new-system="no"/>
        </measure>
        <measure number="22" width="122">
            <print new-system="no"/>
        </measure>
    </part>
</score-partwise>